<svg xmlns="http://www.w3.org/2000/svg" viewBox="0 0 15.72804 15.05237"><title>Color_Icon</title><g id="Layer_2" data-name="Layer 2"><g id="Layer_8" data-name="Layer 8"><path d="M-267.84178-83.4364a1.9937,1.9937,0,0,0-2.78125.00293l-7.45838,7.45013a3.47435,3.47435,0,0,0-1.83166.25885A3.51926,3.51926,0,0,0-282-72.51794a2.95345,2.95345,0,0,1-.78906,2.48925l-.08984.1045a.49931.49931,0,0,0-.084.51465.49847.49847,0,0,0,.41895.30957c.96679.085,1.88965.15234,2.73828.15234a5.54023,5.54023,0,0,0,3.83008-1.05469A3.25235,3.25235,0,0,0-275-72.51794a3.19489,3.19489,0,0,0-.12188-.88123l7.286-7.25745A1.9873,1.9873,0,0,0-267.84178-83.4364Zm-8.80957,12.69678c-.97461.895-3.07032.8584-4.88184.7207a4.50583,4.50583,0,0,0,.5332-2.499,2.51661,2.51661,0,0,1,1.49024-2.29151,2.43488,2.43488,0,0,1,1.64062-.11865l.01856.00488a2.41912,2.41912,0,0,1,1.76172,1.77637A2.24235,2.24235,0,0,1-276-72.51794,2.27163,2.27163,0,0,1-276.65135-70.73962Zm8.10644-10.62207-6.96875,6.9414a3.56646,3.56646,0,0,0-1.38769-1.32861l6.98242-6.97363a.98415.98415,0,0,1,1.37012-.00586A.97992.97992,0,0,1-268.54491-81.36169Z" transform="translate(283 84)"/></g></g></svg>